<?xml version="1.0" encoding="utf-8"?><svg xmlns="http://www.w3.org/2000/svg" id="Ebene_1" width="1368.8" height="397.3" viewBox="0 0 1368.8 397.3"><style>.st0{fill:#007377;} .st1{fill:#FFFFFF;}</style><g id="Typo_x5F_vektor"><path d="M986.2 129.2h-37.7v138.2h29.1v-33.7h8.5c37.8 0 60.4-19.5 60.4-52.2.1-32.7-22.5-52.3-60.3-52.3zm-.8 78.7h-7.7v-53h7.7c21.4 0 31.3 8.4 31.3 26.6 0 18-9.9 26.4-31.3 26.4zM1066.8 129.3h28.5v138.2h-28.5V129.3zM1118.8 198.4c0-40.9 31.7-70.9 71.6-70.9s71.6 30.1 71.6 70.9c0 40.9-31.7 70.9-71.6 70.9s-71.6-30-71.6-70.9zm113.8 0c0-25.8-17.1-45.5-42.3-45.5-25.2 0-42.3 19.7-42.3 45.5s17.1 45.5 42.3 45.5c25.2 0 42.3-19.7 42.3-45.5zM1323.8 269.4c-3.5 0-6.5-.1-9.3-.3-18-1.5-28.9-8.1-38.4-23.5 5.4-3.7 11.4-7.8 17.6-12.1l4.2-2.9c3.9 7.1 9.6 12 16.4 14.2 2.6.8 5.3 1.2 8.2 1.2 7 0 18.7-3.4 18.7-15.9 0-3.1-.5-5.4-1.7-7.4-2.3-4-7.4-6.6-16.6-10.3-1.6-.7-3.3-1.3-5.2-2.1l-2.8-1.1c-8.5-3.3-15.4-6.3-21.2-10.4-5.4-3.7-9.4-7.9-12.1-12.8-3.1-5.7-4.7-12.3-4.7-20.3 0-23.1 17.2-38 43.8-38 3.5 0 6.9.2 9.9.8 13.7 2.1 24.4 8.9 33.4 21.4l-8.1 5.6c-4.2 2.9-8.6 5.9-13 9-3.3-5.3-8.2-9.6-13.6-11.8-3-1.2-6.2-1.9-9.4-1.9-15.7 0-16.4 11.4-16.4 13.7 0 2 .4 3.8 1.1 5.4 2.5 5.7 8.9 8.8 15.5 11.2.3.1.7.2 1 .3l17.2 6.3c4.2 1.5 8.5 3.6 12.2 6.1 4.5 2.9 8.2 6.2 10.7 9.7.2.3.9 1.2 1.8 2.8 2.1 3.6 5.7 11 5.7 20.8 0 5.9 0 24-19.1 35.5-7.6 4.6-18.7 6.8-25.8 6.8zM623.1 191.7l45.5-62.6h35.5l-49 67.1 52.4 71.2h-34.4l-35.9-50.2-14.2 18v32.2h-28.5V129.2H623v62.5zM416.9 135.1l54.3 132.4h-30.8l-6.5-15.7h-56.1l-6.5 15.7h-30.8l54.3-132.4c3.9-9.9 18-9.9 22.1 0zm7.4 93l-18.5-48.8-18.5 48.8h37zM528 269.4c-3.5 0-6.5-.1-9.3-.3-18-1.5-28.9-8.1-38.4-23.5 5.4-3.7 11.4-7.8 17.6-12.1l4.2-2.9c3.9 7.1 9.6 12 16.4 14.2 2.6.8 5.3 1.2 8.2 1.2 7 0 18.7-3.4 18.7-15.9 0-3.1-.5-5.4-1.7-7.4-2.3-4-7.4-6.6-16.6-10.3-1.6-.7-8-3.2-8-3.2-8.5-3.3-15.4-6.3-21.2-10.4-5.4-3.7-9.4-7.9-12.1-12.8-3.1-5.7-4.7-12.3-4.7-20.3 0-23.1 17.2-38 43.8-38 3.5 0 6.9.2 9.9.8 13.7 2.1 24.4 8.9 33.4 21.4l-8.1 5.6c-4.2 2.9-8.6 5.9-13 9-3.3-5.3-8.2-9.6-13.6-11.8-3-1.2-6.2-1.9-9.4-1.9-15.7 0-16.4 11.4-16.4 13.7 0 2 .4 3.8 1.1 5.4 2.5 5.7 8.9 8.8 15.5 11.2.3.1.7.2 1 .3l17.2 6.3c4.2 1.5 8.5 3.6 12.2 6.1 4.5 2.9 8.2 6.2 10.7 9.7.2.3.9 1.2 1.8 2.8 2.1 3.6 5.7 11 5.7 20.8 0 5.9 0 24-19.1 35.5-7.7 4.6-18.8 6.8-25.8 6.8zM726 129.3h28.5v113.2h55.8v25H726V129.3zM833.2 129.2h87v24.7h-58.9v33.9h45.1v24.1h-45.1v31H923v24.7h-89.8z" class="st0"/></g><g id="Signet"><circle cx="141.7" cy="198.7" r="141.7" class="st0"/><path d="M133.7 271.6V320c0 4.4 3.6 8 8 8s8-3.6 8-8v-37.4l-16-11z" class="st1"/><path d="M97.2 223.7c0 8.6 8.3 15.9 11.8 18.7 0 0 .1.1 50.5 34.9v26.3c3.6-1 26.8-8.9 26.8-24.5 0-9.3-9.6-17.1-12.5-19.3-.3-.2-40.7-28.1-49.8-34.4v-26.3c-1.8.5-26.8 8.4-26.8 24.6z" class="st1"/><path d="M133.7 188v32.1l16 11v-32z" class="st1"/><path d="M97.2 140.1c0 8.6 8.3 15.9 11.8 18.7 0 0 .1.1 50.5 34.9V220c3.6-1 26.8-8.9 26.8-24.5 0-9.3-9.6-17.1-12.5-19.3-.3-.2-40.7-28.1-49.8-34.4v-26.3c-1.8.5-26.8 8.4-26.8 24.6zM159.5 134.1c14.7-3.2 22.5-7.2 23.6-12 .9-4-1.9-7.2-7-11.4-3.6-3-5.5-6.3-16.5-4v27.4z" class="st1"/><path d="M128.1 83.5c0-7.5 6.1-13.7 13.7-13.7 7.5 0 13.7 6.1 13.7 13.7 0 4.5-2.2 8.6-5.6 11v53l-16-11.1v-42c-3.6-2.4-5.8-6.4-5.8-10.9z" class="st1"/></g></svg>